<svg width="500" height="500" viewBox="0 0 500 500" fill="none" xmlns="http://www.w3.org/2000/svg">
<rect width="500" height="500" rx="64" fill="url(#paint0_linear_1005_254)"/>
<path fill-rule="evenodd" clip-rule="evenodd" d="M320.062 182.643C313.964 173.494 303.696 168 292.7 168H206.545C195.549 168 185.28 173.494 179.182 182.643L145.522 233.129C141.921 238.532 140 244.879 140 251.371V299.546C140 317.709 154.724 332.433 172.887 332.433H326.357C344.522 332.433 359.244 317.709 359.244 299.546V251.371C359.244 244.879 357.322 238.532 353.721 233.129L320.062 182.643ZM335.107 244.734L301.82 194.802C299.787 191.752 296.364 189.92 292.699 189.92H206.545C202.88 189.92 199.457 191.752 197.424 194.802L164.136 244.734H192.151C200.873 244.734 209.238 248.199 215.405 254.367L224.487 263.447C226.543 265.503 229.331 266.659 232.237 266.659H267.007C269.914 266.659 272.702 265.503 274.757 263.447L283.84 254.367C290.006 248.199 298.371 244.734 307.094 244.734H335.107ZM267.008 288.583C275.728 288.583 284.094 285.118 290.262 278.951L299.342 269.869C301.4 267.813 304.187 266.659 307.094 266.659H337.322V299.546C337.322 305.601 332.413 310.508 326.358 310.508H172.889C166.834 310.508 161.925 305.601 161.925 299.546V266.659H192.153C195.06 266.659 197.85 267.813 199.905 269.869L208.986 278.951C215.154 285.118 223.519 288.583 232.24 288.583H267.008Z" fill="white"/>
<defs>
<linearGradient id="paint0_linear_1005_254" x1="20" y1="486" x2="764.5" y2="-260.5" gradientUnits="userSpaceOnUse">
<stop/>
<stop offset="1" stop-color="#818181"/>
</linearGradient>
</defs>
</svg>
