<svg width="623" height="467" viewBox="0 0 623 467" fill="none" xmlns="http://www.w3.org/2000/svg">
<path fill-rule="evenodd" clip-rule="evenodd" d="M511.017 41.5573C493.711 15.5933 464.569 0 433.361 0H188.855C157.647 0 128.505 15.5933 111.199 41.5573L15.672 184.837C5.45321 200.171 0 218.181 0 236.608V373.328C0 424.875 41.7867 466.661 93.3333 466.661H528.88C580.432 466.661 622.213 424.875 622.213 373.328V236.608C622.213 218.181 616.76 200.171 606.541 184.837L511.017 41.5573ZM553.715 217.771L459.245 76.064C453.475 67.4077 443.761 62.2093 433.36 62.2093H188.853C178.452 62.2093 168.739 67.4072 162.968 76.064L68.4987 217.771H148.004C172.759 217.771 196.499 227.604 213.999 245.109L239.775 270.88C245.608 276.713 253.52 279.995 261.769 279.995H360.447C368.697 279.995 376.608 276.713 382.441 270.88L408.217 245.109C425.717 227.604 449.457 217.771 474.212 217.771H553.715ZM360.448 342.213C385.197 342.213 408.937 332.38 426.443 314.88L452.213 289.104C458.052 283.271 465.963 279.995 474.213 279.995H560V373.328C560 390.511 546.068 404.437 528.885 404.437H93.3387C76.156 404.437 62.224 390.511 62.224 373.328V279.995H148.011C156.261 279.995 164.177 283.271 170.011 289.104L195.781 314.88C213.287 332.38 237.027 342.213 261.776 342.213H360.448Z" fill="black"/>
</svg>
