<svg width="553" height="594" viewBox="0 0 553 594" fill="none" xmlns="http://www.w3.org/2000/svg">
<path d="M369.211 0.00812276H184.038C160.142 0.00812276 140.731 19.4201 140.731 43.3148V88.1175H0.35791V132.92H53.3739V548.813C53.3739 573.453 73.5352 593.616 98.1766 593.616H455.083C479.723 593.616 499.886 573.455 499.886 548.813L499.881 132.907H552.891V88.1041L412.518 88.1093V43.3067C412.518 18.6667 393.102 0 369.211 0L369.211 0.00812276ZM185.531 44.8108H366.971V88.1175H185.531V44.8108ZM455.078 548.064H98.1712V132.917H455.078V548.064Z" fill="black"/>
<path d="M254.225 203.848H299.027V471.901H254.225V203.848Z" fill="black"/>
<path d="M336.358 203.848H381.161V471.901H336.358V203.848Z" fill="black"/>
<path d="M172.091 203.848H216.894V471.901H172.091V203.848Z" fill="black"/>
</svg>
